<svg width="24" height="24" viewBox="0 0 24 24" fill="none" xmlns="http://www.w3.org/2000/svg">
<path d="M18.7 10.2C19.1774 10.2 19.6352 10.3896 19.9728 10.7272C20.3104 11.0648 20.5 11.5226 20.5 12V12.45C20.5 13.9746 18.4777 17.391 16.9153 18.7347L16.9 18.7464V19.2C16.9001 19.6541 16.7286 20.0915 16.4199 20.4245C16.1111 20.7575 15.6878 20.9614 15.235 20.9955L15.1 21H7.9C7.42261 21 6.96477 20.8104 6.62721 20.4728C6.28964 20.1352 6.1 19.6774 6.1 19.2V18.7536L6.0415 18.7059C4.4575 17.3595 2.6269 14.2374 2.5063 12.6129L2.5 12.45V12C2.5 11.5226 2.68964 11.0648 3.02721 10.7272C3.36477 10.3896 3.82261 10.2 4.3 10.2H18.7ZM7.9 3C9.439 3 10.8133 3.7083 11.3065 4.8H18.7C18.9387 4.8 19.1676 4.89482 19.3364 5.0636C19.5052 5.23239 19.6 5.46131 19.6 5.7C19.6 5.93869 19.5052 6.16761 19.3364 6.3364C19.1676 6.50518 18.9387 6.6 18.7 6.6L11.3056 6.6009C10.8124 7.6926 9.439 8.4 7.9 8.4C5.9704 8.4 4.3 7.2867 4.3 5.7C4.3 4.1133 5.9704 3 7.9 3Z" fill="#1F222D"/>
</svg>
