<svg width="28" height="28" viewBox="0 0 28 28" fill="none" xmlns="http://www.w3.org/2000/svg">
<path d="M3.078 10.6426C4.7655 10.1036 6.512 9.83408 8.176 9.83408C10.332 9.83408 11.914 10.1741 13.953 10.1741C16.0625 10.1741 17.375 8.74408 17.375 6.88108C17.375 4.97108 15.91 3.61108 14.1055 3.61108C12.7695 3.61108 11.5975 4.44358 11.1055 5.55658C10.918 5.94358 10.9885 6.40058 11.3985 6.61158C11.7735 6.79908 12.2305 6.68158 12.4765 6.20158C12.7345 5.60358 13.367 5.13508 14.1055 5.13508C15.078 5.13508 15.84 5.81458 15.84 6.88108C15.84 7.94758 15.1015 8.65008 13.953 8.65008C12.008 8.65008 10.4025 8.29858 8.176 8.29858C6.266 8.29858 4.332 8.63858 2.6095 9.18858C2.117 9.32958 1.9295 9.75158 2.047 10.1616C2.164 10.5601 2.551 10.7951 3.078 10.6426ZM21.4065 16.1266C24.1365 16.1266 26.0705 14.3921 26.0705 11.9666C26.0705 9.57558 24.2305 7.84158 21.9455 7.84158C19.8245 7.84158 18.254 9.31808 17.9725 11.2631C17.9025 11.7436 18.172 12.1306 18.5935 12.1891C19.0275 12.2476 19.4025 11.9781 19.496 11.4271C19.6955 10.2086 20.715 9.36458 21.9455 9.36458C23.3755 9.36458 24.5355 10.4311 24.5355 11.9666C24.5355 13.5251 23.305 14.6031 21.4065 14.6031C17.832 14.6031 13.9765 12.5641 9.289 12.5641C6.875 12.5641 4.672 12.9506 2.609 13.6891C2.129 13.8531 1.9295 14.2631 2.047 14.6736C2.164 15.0721 2.5625 15.3181 3.078 15.1421C4.988 14.4156 6.9805 14.0991 9.289 14.0991C13.965 14.0991 17.457 16.1266 21.4065 16.1266ZM13.965 24.3886C15.77 24.3886 17.164 23.0526 17.164 21.1426C17.164 18.3771 14.34 16.8301 9.1365 16.8301C6.957 16.8301 4.6015 17.2521 2.6095 17.9436C2.129 18.1076 1.9295 18.5176 2.047 18.9276C2.164 19.3261 2.5625 19.5726 3.078 19.3966C4.9415 18.7286 7.0275 18.3656 9.137 18.3656C13.3905 18.3656 15.6405 19.4316 15.6405 21.1426C15.6405 22.2206 14.8905 22.8656 13.965 22.8656C13.039 22.8656 12.4765 22.2441 12.3125 21.2596C12.2425 20.8261 11.926 20.4746 11.422 20.5096C10.8945 20.5446 10.6835 20.9906 10.754 21.4591C10.965 23.0881 12.172 24.3886 13.965 24.3886Z" fill="#686C75"/>
</svg>
