<svg width="24" height="24" viewBox="0 0 24 24" fill="none" xmlns="http://www.w3.org/2000/svg">
<path fill-rule="evenodd" clip-rule="evenodd" d="M6.9895 7.94821C7.82552 7.58555 8.48953 7.60021 9.01487 7.83888C9.55488 8.08421 10.0909 8.63353 10.5202 9.62019C10.682 9.99618 10.7913 10.3428 10.8482 10.6602C10.9256 11.0735 11.2976 11.3642 11.7176 11.3402C12.2323 11.3082 12.7163 11.4508 13.1549 11.8188C12.9549 11.9477 12.7701 12.0975 12.6003 12.2682C12.1736 12.6948 11.8776 13.2148 11.7003 13.8041C11.6155 14.087 11.557 14.3771 11.5256 14.6708C11.4876 15.0166 11.4805 15.3651 11.5042 15.7121C11.2785 15.7121 11.0531 15.7134 10.8282 15.7161C10.6602 14.4775 10.3656 13.0281 9.15487 11.6108C9.08458 11.5251 8.99788 11.4542 8.89985 11.4024C8.80183 11.3506 8.69445 11.3189 8.58401 11.3091C8.47357 11.2993 8.36229 11.3117 8.25668 11.3454C8.15107 11.3792 8.05326 11.4337 7.96898 11.5057C7.8847 11.5778 7.81564 11.6659 7.76584 11.7649C7.71605 11.864 7.68653 11.972 7.67901 12.0826C7.67148 12.1932 7.68611 12.3042 7.72203 12.4091C7.75794 12.514 7.81443 12.6107 7.88818 12.6935C8.73887 13.6895 8.9882 14.6695 9.14687 15.7441C7.98945 15.7702 6.83243 15.812 5.67614 15.8694C5.47614 14.9068 5.72148 14.2108 6.24149 13.7161C6.38861 13.5762 6.47956 13.3873 6.49723 13.185C6.51491 12.9827 6.45811 12.7809 6.33749 12.6175C6.12372 12.3219 5.94434 12.003 5.80281 11.6668C5.37347 10.6802 5.3388 9.91485 5.52814 9.35219C5.71081 8.80553 6.15482 8.3122 6.9895 7.94821ZM19.7337 16.2374C19.7826 15.9423 19.8066 15.6352 19.8057 15.3161C19.8057 14.0988 19.4617 13.0308 18.6977 12.2682C17.9337 11.5055 16.8657 11.1602 15.6483 11.1602C15.3817 11.1602 15.1225 11.1771 14.871 11.2108C14.1976 10.3602 13.3323 9.82418 12.3243 9.69752C12.247 9.44517 12.1549 9.19762 12.0483 8.9562C11.5149 7.72821 10.7376 6.79089 9.70422 6.32023C8.6562 5.84557 7.48951 5.9149 6.32682 6.42023C5.1628 6.92422 4.31479 7.72955 3.94811 8.8202C3.58677 9.89618 3.74011 11.1042 4.27345 12.3308C4.38279 12.5797 4.50101 12.8157 4.62812 13.0388C3.95611 13.9668 3.79478 15.1081 4.07078 16.3241C3.72032 16.4969 3.43094 16.7726 3.24129 17.1142C3.05164 17.4559 2.97075 17.8472 3.00943 18.2361C3.1881 20.0054 3.60411 21.5494 5.0388 22.5854C6.41349 23.5773 8.6002 24 12.0003 24C15.4003 24 17.5857 23.5787 18.9617 22.5854C20.3964 21.5507 20.8124 20.0067 20.9911 18.2374C21.0321 17.812 20.9309 17.3849 20.7034 17.023C20.4759 16.6612 20.1349 16.3849 19.7337 16.2374ZM13.1763 15.7174C14.8202 15.7326 16.4636 15.7797 18.1057 15.8588C18.1279 15.6926 18.139 15.5117 18.139 15.3161C18.139 14.4055 17.8857 13.8135 17.519 13.4468C17.1524 13.0801 16.559 12.8268 15.6483 12.8268C15.299 12.8286 14.9941 12.8633 14.7336 12.9308L14.715 12.9361C14.6177 12.9618 14.522 12.993 14.4283 13.0295C14.2505 13.1006 14.095 13.1864 13.9616 13.2868C13.7306 13.4596 13.5463 13.6874 13.4256 13.9495C13.2603 14.2921 13.1589 14.7401 13.1589 15.3161C13.1589 15.4574 13.1647 15.5921 13.1763 15.7174Z" fill="#686C75"/>
</svg>
