<svg width="24" height="24" viewBox="0 0 24 24" fill="none" xmlns="http://www.w3.org/2000/svg">
<path d="M15.03 17.0905C13.3985 18.449 11.3061 19.1263 9.18798 18.9815C7.06987 18.8367 5.08912 17.8809 3.65774 16.3129C2.22637 14.745 1.45456 12.6855 1.50287 10.563C1.55118 8.44051 2.41588 6.41833 3.9171 4.9171C5.41833 3.41588 7.44051 2.55118 9.56302 2.50287C11.6855 2.45456 13.745 3.22637 15.3129 4.65774C16.8809 6.08912 17.8367 8.06987 17.9815 10.188C18.1263 12.3061 17.449 14.3985 16.0905 16.03L20.781 20.719C20.9218 20.8598 21.0009 21.0508 21.0009 21.25C21.0009 21.4491 20.9218 21.6401 20.781 21.781C20.6401 21.9218 20.4491 22.0009 20.25 22.0009C20.0508 22.0009 19.8598 21.9218 19.719 21.781L15.03 17.0905ZM16.5 10.75C16.5 9.86354 16.3254 8.9858 15.9862 8.16685C15.6469 7.34791 15.1497 6.60379 14.5229 5.977C13.8961 5.3502 13.152 4.853 12.3331 4.51378C11.5141 4.17456 10.6364 3.99997 9.74997 3.99997C8.86354 3.99997 7.9858 4.17456 7.16685 4.51378C6.34791 4.853 5.60379 5.3502 4.977 5.977C4.3502 6.60379 3.853 7.34791 3.51378 8.16685C3.17456 8.9858 2.99997 9.86354 2.99997 10.75C2.99997 12.5402 3.71113 14.2571 4.977 15.5229C6.24287 16.7888 7.95976 17.5 9.74997 17.5C11.5402 17.5 13.2571 16.7888 14.5229 15.5229C15.7888 14.2571 16.5 12.5402 16.5 10.75Z" fill="#ACB1BA"/>
</svg>
