<svg width="24" height="24" viewBox="0 0 24 24" fill="none" xmlns="http://www.w3.org/2000/svg">
<path fill-rule="evenodd" clip-rule="evenodd" d="M12 6C7.02949 6 3 10.0295 3 15C3 19.9705 7.02949 24 12 24C16.9705 24 21 19.9705 21 15C21 10.0295 16.9705 6 12 6ZM12.6279 9.97674C12.6279 9.81021 12.5618 9.6505 12.444 9.53275C12.3262 9.41499 12.1665 9.34884 12 9.34884C11.8335 9.34884 11.6738 9.41499 11.556 9.53275C11.4382 9.6505 11.3721 9.81021 11.3721 9.97674V15C11.3721 15.3466 11.6534 15.6279 12 15.6279H17.0233C17.1898 15.6279 17.3495 15.5618 17.4673 15.444C17.585 15.3262 17.6512 15.1665 17.6512 15C17.6512 14.8335 17.585 14.6738 17.4673 14.556C17.3495 14.4382 17.1898 14.3721 17.0233 14.3721H12.6279V9.97674Z" fill="#686C75"/>
</svg>
