<svg width="24" height="24" viewBox="0 0 24 24" fill="none" xmlns="http://www.w3.org/2000/svg">
<path d="M20.7428 21.1271L13.7159 8.97764C13.5403 8.67999 13.2897 8.43318 12.9887 8.2617C12.6878 8.09021 12.3471 8 12.0004 8C11.6537 8 11.313 8.09021 11.0121 8.2617C10.7111 8.43318 10.4605 8.67999 10.2849 8.97764L3.25799 21.1271C3.08904 21.415 3 21.7425 3 22.0759C3 22.4094 3.08904 22.7368 3.25799 23.0247C3.43134 23.3242 3.68159 23.5723 3.98307 23.7437C4.28454 23.9151 4.62639 24.0035 4.97353 23.9999H19.0273C19.3741 24.0032 19.7157 23.9146 20.0168 23.7433C20.318 23.5719 20.568 23.3239 20.7412 23.0247C20.9104 22.7369 20.9997 22.4096 21 22.0761C21.0003 21.7427 20.9115 21.4152 20.7428 21.1271ZM11.3576 14.4C11.3576 14.2303 11.4253 14.0675 11.5459 13.9474C11.6664 13.8274 11.8299 13.76 12.0004 13.76C12.1709 13.76 12.3344 13.8274 12.4549 13.9474C12.5755 14.0675 12.6432 14.2303 12.6432 14.4V17.6C12.6432 17.7697 12.5755 17.9325 12.4549 18.0525C12.3344 18.1725 12.1709 18.24 12.0004 18.24C11.8299 18.24 11.6664 18.1725 11.5459 18.0525C11.4253 17.9325 11.3576 17.7697 11.3576 17.6V14.4ZM12.0004 21.4399C11.8097 21.4399 11.6233 21.3836 11.4647 21.2781C11.3061 21.1726 11.1825 21.0227 11.1096 20.8473C11.0366 20.6719 11.0175 20.4789 11.0547 20.2926C11.0919 20.1064 11.1837 19.9354 11.3186 19.8011C11.4534 19.6669 11.6252 19.5754 11.8123 19.5384C11.9993 19.5013 12.1932 19.5204 12.3694 19.593C12.5456 19.6657 12.6962 19.7887 12.8021 19.9466C12.9081 20.1045 12.9646 20.2901 12.9646 20.4799C12.9646 20.7345 12.863 20.9787 12.6822 21.1587C12.5014 21.3388 12.2561 21.4399 12.0004 21.4399Z" fill="#686C75"/>
</svg>
